<?xml version="1.0" encoding="UTF-8" standalone="no"?>
<svg width="36px" height="36px" viewBox="0 0 36 36" version="1.1" xmlns="http://www.w3.org/2000/svg" xmlns:xlink="http://www.w3.org/1999/xlink">
    <!-- Generator: sketchtool 40.1 (33804) - http://www.bohemiancoding.com/sketch -->
    <title>tool_brush</title>
    <desc>Created with sketchtool.</desc>
    <defs></defs>
    <g id="Page-1" stroke="none" stroke-width="1" fill="none" fill-rule="evenodd" stroke-linecap="round" stroke-linejoin="round">
        <g id="tool_brush" stroke="#9B9B9B" stroke-width="2">
            <path d="M19.5781,25.0051 C18.0171,26.5661 15.3331,26.4361 13.6121,24.7151 C11.8921,22.9951 11.7611,20.3101 13.3221,18.7491 C14.8831,17.1871 19.8511,12.7321 24.3611,8.8471 C28.8721,4.9621 33.4581,2.6791 34.5531,3.7741 C35.6471,4.8691 33.3641,9.4551 29.4791,13.9651 C25.5941,18.4761 21.1391,23.4441 19.5781,25.0051 L19.5781,25.0051 Z" id="Stroke-1"></path>
            <path d="M12.2453731,21.7449649 C10.7943731,21.6359649 9.9174,22.1006 8.8104,23.2096 C8.1094,23.9096 7.6564,24.7636 7.4434,25.6626 C6.7384,29.4266 4.2224,31.9296 1.5004,31.6056 C1.5004,31.6056 10.1464,36.4876 16.1174,30.5176 C17.2614,29.3746 17.7554,27.8296 17.6054,26.3386" id="Stroke-3"></path>
            <path d="M14.3496,17.7224 C14.3496,17.7224 16.1246,22.3624 20.6056,23.9794" id="Stroke-5"></path>
        </g>
    </g>
</svg>